# File created by Blade
# Date/Time:  Wed Apr 08 17:16:55 2015
#---------------------------------------------------------
:version 1.10
:name HOM
:units
  mass 1.0
  length 1.000000
  angle deg
:documentation
     Acclaim Skeleton File
:root
   axis xyz
   order TX TY TZ RX RY RZ
   position 0.000000 0.000000 0.000000
   orientation 0 0 0
:bonedata
   begin
      id 1
      name Spine_dum
      direction 0.000000 1.000000 0.000000
      length 5.893853
      axis 0.0 0.0 0.0 xyz
   end
   begin
      id 2
      name LeftUpLeg_dum
      direction 1.000000 0.000000 0.000000
      length 3.697939
      axis 0.0 0.0 0.0 xyz
   end
   begin
      id 3
      name RightUpLeg_dum
      direction -1.000000 0.000000 0.000000
      length 3.697939
      axis 0.0 0.0 0.0 xyz
   end
   begin
      id 4
      name Spine
      direction 0.000000 1.000000 0.000000
      length 0.000000
      axis 0.0 0.0 0.0 xyz
      dof rx ry rz
   end
   begin
      id 5
      name Spine_dum1
      direction 0.000000 1.000000 0.000000
      length 16.447146
      axis 0.0 0.0 0.0 xyz
   end
   begin
      id 6
      name Spine_dum2
      direction 0.000000 1.000000 0.000000
      length 10.900383
      axis 0.0 0.0 0.0 xyz
   end
   begin
      id 7
      name Spine_dum3
      direction 0.000000 1.000000 0.000000
      length 10.900383
      axis 0.0 0.0 0.0 xyz
   end
   begin
      id 8
      name Head
      direction 0.000000 1.000000 0.000000
      length 4.527550
      axis 0.0 0.0 0.0 xyz
      dof rx ry rz
   end
   begin
      id 9
      name LeftShoulder
      direction 1.000000 0.000000 0.000000
      length 8.219464
      axis 0.0 0.0 -90.0 xyz
      dof rx ry rz
   end
   begin
      id 10
      name LeftArm
      direction 1.000000 0.000000 0.000000
      length 11.094937
      axis 0.0 0.0 -90.0 xyz
      dof rx ry rz
   end
   begin
      id 11
      name LeftForeArm
      direction 1.000000 0.000000 0.000000
      length 9.103875
      axis 0.0 0.0 -90.0 xyz
      dof ry rz rx
   end
   begin
      id 12
      name LeftHand
      direction 0.000000 0.000000 0.000000
      length 0.000000
      axis 0.0 0.0 -90.0 xyz
      dof rx ry rz
   end
   begin
      id 13
      name LeftHand_dum1
      direction 0.000000 0.000000 0.000000
      length 0.000000
      axis 0.0 0.0 -90.0 xyz
   end
   begin
      id 14
      name LeftHand_dum2
      direction 1.000000 0.000000 0.000000
      length 3.937000
      axis 0.0 0.0 -90.0 xyz
   end
   begin
      id 15
      name LeftHandThumb1
      direction 0.000000 0.000000 1.000000
      length 3.937000
      axis 0.0 0.0 -90.0 xyz
      dof rx rz ry
   end
   begin
      id 16
      name RightShoulder
      direction -1.000000 0.000000 0.000000
      length 8.219464
      axis 0.0 0.0 90.0 xyz
      dof rx ry rz
   end
   begin
      id 17
      name RightArm
      direction -1.000000 0.000000 0.000000
      length 11.094937
      axis 0.0 0.0 90.0 xyz
      dof rx ry rz
   end
   begin
      id 18
      name RightForeArm
      direction -1.000000 0.000000 0.000000
      length 9.103875
      axis 0.0 0.0 90.0 xyz
      dof ry rz rx
   end
   begin
      id 19
      name RightHand
      direction 0.000000 0.000000 0.000000
      length 0.000000
      axis 0.0 0.0 90.0 xyz
      dof rx ry rz
   end
   begin
      id 20
      name RightHand_dum1
      direction 0.000000 0.000000 0.000000
      length 0.000000
      axis 0.0 0.0 90.0 xyz
   end
   begin
      id 21
      name RightHand_dum2
      direction -1.000000 0.000000 0.000000
      length 3.937000
      axis 0.0 0.0 90.0 xyz
   end
   begin
      id 22
      name RightHandThumb1
      direction 0.000000 0.000000 1.000000
      length 3.937000
      axis 0.0 0.0 90.0 xyz
      dof rx rz ry
   end
   begin
      id 23
      name LeftUpLeg
      direction 0.000000 -1.000000 0.000000
      length 16.181467
      axis 0.0 0.0 0.0 xyz
      dof rx ry rz
   end
   begin
      id 24
      name LeftLeg
      direction 0.000000 -1.000000 0.000000
      length 16.501392
      axis 0.0 0.0 0.0 xyz
      dof rx ry rz
   end
   begin
      id 25
      name LeftFoot
      direction 0.000000 -0.258819 0.965926
      length 6.408245
      axis 15.0 0.0 0.0 xyz
      dof rx ry rz
   end
   begin
      id 26
      name LeftToeBase
      direction 0.000000 0.000000 1.000000
      length 2.952750
      axis 0.0 0.0 0.0 xyz
      dof rx ry rz
   end
   begin
      id 27
      name RightUpLeg
      direction 0.000000 -1.000000 0.000000
      length 16.181467
      axis 0.0 0.0 0.0 xyz
      dof rx ry rz
   end
   begin
      id 28
      name RightLeg
      direction 0.000000 -1.000000 0.000000
      length 16.501392
      axis 0.0 0.0 0.0 xyz
      dof rx ry rz
   end
   begin
      id 29
      name RightFoot
      direction 0.000000 -0.258819 0.965926
      length 6.408245
      axis 15.0 0.0 0.0 xyz
      dof rx ry rz
   end
   begin
      id 30
      name RightToeBase
      direction 0.000000 0.000000 1.000000
      length 2.952750
      axis 0.0 0.0 0.0 xyz
      dof rx ry rz
   end
:hierarchy
   begin
      root Spine_dum LeftUpLeg_dum RightUpLeg_dum
      Spine_dum Spine
      LeftUpLeg_dum LeftUpLeg
      RightUpLeg_dum RightUpLeg
      Spine Spine_dum1 Spine_dum2 Spine_dum3
      Spine_dum1 Head
      Spine_dum2 LeftShoulder
      Spine_dum3 RightShoulder
      LeftShoulder LeftArm
      LeftArm LeftForeArm
      LeftForeArm LeftHand
      LeftHand LeftHand_dum1 LeftHand_dum2
      LeftHand_dum1 LeftHandThumb1
      RightShoulder RightArm
      RightArm RightForeArm
      RightForeArm RightHand
      RightHand RightHand_dum1 RightHand_dum2
      RightHand_dum1 RightHandThumb1
      LeftUpLeg LeftLeg
      LeftLeg LeftFoot
      LeftFoot LeftToeBase
      RightUpLeg RightLeg
      RightLeg RightFoot
      RightFoot RightToeBase
   end

# File created by Blade
# Date/Time:  Wed Apr 08 17:17:01 2015
# Frame Rate: 120.000 fps
#------------------------------------------------------
:FULLY-SPECIFIED
:DEGREES
614
root 4.696020 35.949259 4.755704 -6.268794 -24.052457 -3.303811
Spine 12.798043 1.878718 10.401637
Head 17.441400 17.643062 3.774071
LeftShoulder -5.510806 16.067994 15.405243
LeftArm 20.010356 25.371302 -74.919365
LeftForeArm 23.663057 -0.000000 26.383704
LeftHand -8.615899 0.000000 -18.274506
LeftHandThumb1 -26.253704 0.000000 33.147579
RightShoulder -24.134622 -48.636557 17.918558
RightArm 63.002416 -21.225761 43.716903
RightForeArm 31.170050 -0.000000 11.377582
RightHand -6.417043 -0.000000 16.857161
RightHandThumb1 -24.326973 -0.000000 -32.862282
LeftUpLeg 4.860506 4.541442 -3.332151
LeftLeg 18.441982 -0.000000 -0.000000
LeftFoot -18.180119 -2.089613 -6.737197
LeftToeBase 15.797423 -0.000000 -0.000000
RightUpLeg -47.956295 10.076491 0.313978
RightLeg 156.040436 -0.000000 -0.000000
RightFoot 37.644406 8.653699 14.381559
RightToeBase -7.029022 -0.000000 0.000000
615
root 4.692140 35.952386 4.762347 -6.203708 -24.056355 -3.321024
Spine 12.721305 1.874601 10.369152
Head 17.479925 17.665822 3.773030
LeftShoulder -5.524815 16.104345 15.383109
LeftArm 19.980665 25.366666 -74.921249
LeftForeArm 23.627622 0.000000 26.410910
LeftHand -8.655807 0.000000 -18.237121
LeftHandThumb1 -26.253704 0.000000 33.147579
RightShoulder -24.175824 -48.638731 17.975899
RightArm 62.992137 -21.223794 43.727239
RightForeArm 31.195091 0.000000 11.341528
RightHand -6.403778 -0.000000 16.783521
RightHandThumb1 -24.326973 -0.000000 -32.862282
LeftUpLeg 4.804930 4.653450 -3.285405
LeftLeg 18.466039 -0.000000 -0.000000
LeftFoot -18.185641 -2.232847 -6.826884
LeftToeBase 15.808405 -0.000000 -0.000000
RightUpLeg -47.993329 9.959219 0.284525
RightLeg 156.011811 -0.000000 -0.000000
RightFoot 37.565490 8.620418 14.352906
RightToeBase -6.636258 -0.000000 0.000000
616
root 4.689353 35.955271 4.768748 -6.167718 -24.085183 -3.329097
Spine 12.691899 1.870825 10.329792
Head 17.468477 17.685722 3.740342
LeftShoulder -5.557272 16.153057 15.354118
LeftArm 19.973322 25.370443 -74.917834
LeftForeArm 23.645452 -0.000000 26.428968
LeftHand -8.657597 -0.000000 -18.240384
LeftHandThumb1 -26.253704 0.000000 33.147579
RightShoulder -24.191657 -48.646456 18.017229
RightArm 62.991070 -21.194944 43.772370
RightForeArm 31.201277 -0.000000 11.294126
RightHand -6.411017 0.000000 16.727747
RightHandThumb1 -24.326973 -0.000000 -32.862282
LeftUpLeg 4.770469 4.802617 -3.240136
LeftLeg 18.492559 -0.000000 -0.000000
LeftFoot -18.200493 -2.394930 -6.928489
LeftToeBase 15.948222 -0.000000 -0.000000
RightUpLeg -48.012071 9.884341 0.229872
RightLeg 155.985307 -0.000000 -0.000000
RightFoot 37.511539 8.585366 14.349658
RightToeBase -6.520330 -0.000000 0.000000
617
root 4.686254 35.957386 4.774032 -6.161244 -24.128011 -3.341563
Spine 12.712688 1.878931 10.294290
Head 17.426401 17.696910 3.712739
LeftShoulder -5.551299 16.177170 15.354980
LeftArm 19.932477 25.402281 -74.926122
LeftForeArm 23.631229 -0.000000 26.476674
LeftHand -8.698103 0.000000 -18.231381
LeftHandThumb1 -26.253704 0.000000 33.147579
RightShoulder -24.224819 -48.651156 18.066007
RightArm 63.011700 -21.160372 43.836990
RightForeArm 31.184146 -0.000000 11.231951
RightHand -6.381153 0.000000 16.650208
RightHandThumb1 -24.326973 -0.000000 -32.862282
LeftUpLeg 4.760961 4.971093 -3.186743
LeftLeg 18.533121 -0.000000 -0.000000
LeftFoot -18.232462 -2.560803 -7.055818
LeftToeBase 16.234070 -0.000000 -0.000000
RightUpLeg -47.998855 9.822282 0.200992
RightLeg 155.966006 -0.000000 -0.000000
RightFoot 37.482626 8.578820 14.322930
RightToeBase -6.557508 -0.000000 0.000000
618
root 4.682976 35.960247 4.779359 -6.143232 -24.149260 -3.354791
Spine 12.711124 1.873677 10.259716
Head 17.388119 17.703001 3.683198
LeftShoulder -5.573313 16.213257 15.337640
LeftArm 19.931023 25.474336 -74.895944
LeftForeArm 23.706752 -0.000000 26.502280
LeftHand -8.678987 -0.000000 -18.255120
LeftHandThumb1 -26.253704 0.000000 33.147579
RightShoulder -24.275483 -48.663090 18.137093
RightArm 63.036437 -21.100293 43.949209
RightForeArm 31.167512 -0.000000 11.122250
RightHand -6.371984 -0.000000 16.570156
RightHandThumb1 -24.326973 -0.000000 -32.862282
LeftUpLeg 4.741090 5.136938 -3.129646
LeftLeg 18.570184 -0.000000 -0.000000
LeftFoot -18.245498 -2.748319 -7.158345
LeftToeBase 16.422566 -0.000000 -0.000000
RightUpLeg -47.978768 9.735636 0.164426
RightLeg 155.949449 -0.000000 -0.000000
RightFoot 37.420119 8.558619 14.300560
RightToeBase -6.409505 -0.000000 0.000000
